<?xml version="1.0" standalone="no"?><!DOCTYPE svg PUBLIC "-//W3C//DTD SVG 1.1//EN" "http://www.w3.org/Graphics/SVG/1.1/DTD/svg11.dtd"><svg class="icon" width="200px" height="200.00px" viewBox="0 0 1024 1024" version="1.1" xmlns="http://www.w3.org/2000/svg"><path fill="#333333" d="M856.2 442.7H167.1c-22.1 0-40-17.9-40-40s17.9-40 40-40h689.1c22.1 0 40 17.9 40 40s-17.9 40-40 40zM856.9 442.6c-10.6 0-21.1-4.2-29-12.4L674.4 268.9c-15.2-16-14.6-41.3 1.4-56.6 16-15.2 41.3-14.6 56.6 1.4L885.9 375c15.2 16 14.6 41.3-1.4 56.6-7.8 7.4-17.7 11-27.6 11zM856.9 661.3H167.8c-22.1 0-40-17.9-40-40s17.9-40 40-40h689.1c22.1 0 40 17.9 40 40s-17.9 40-40 40zM320.6 822.7c-10.6 0-21.1-4.2-29-12.4L138.1 649c-15.2-16-14.6-41.3 1.4-56.6 16-15.2 41.3-14.6 56.6 1.4l153.5 161.3c15.2 16 14.6 41.3-1.4 56.6-7.7 7.4-17.7 11-27.6 11z" /></svg>