<?xml version="1.0" standalone="no"?><!DOCTYPE svg PUBLIC "-//W3C//DTD SVG 1.1//EN" "http://www.w3.org/Graphics/SVG/1.1/DTD/svg11.dtd"><svg class="icon" width="200px" height="200.00px" viewBox="0 0 1024 1024" version="1.1" xmlns="http://www.w3.org/2000/svg"><path fill="#333333" d="M835.8 960.6H188.2c-22.1 0-40-17.9-40-40V103.4c0-22.1 17.9-40 40-40h647.6c22.1 0 40 17.9 40 40v817.2c0 22.1-17.9 40-40 40z m-607.6-80h567.6V143.4H228.2v737.2zM665.2 450.1H358.8c-22.1 0-40-17.9-40-40s17.9-40 40-40h306.4c22.1 0 40 17.9 40 40s-17.9 40-40 40zM665.2 653.9H358.8c-22.1 0-40-17.9-40-40s17.9-40 40-40h306.4c22.1 0 40 17.9 40 40s-17.9 40-40 40z" /></svg>