<?xml version="1.0" standalone="no"?><!DOCTYPE svg PUBLIC "-//W3C//DTD SVG 1.1//EN" "http://www.w3.org/Graphics/SVG/1.1/DTD/svg11.dtd"><svg class="icon" width="200px" height="200.00px" viewBox="0 0 1024 1024" version="1.1" xmlns="http://www.w3.org/2000/svg"><path fill="#333333" d="M354.3 845.3c-7.8 0-15.6-3-21.6-8.9-11.9-11.9-11.9-31.2 0-43.1L614 512 332.7 230.8c-11.9-11.9-11.9-31.2 0-43.1 11.9-11.9 31.2-11.9 43.1 0L700.2 512 375.9 836.3c-6 6-13.8 9-21.6 9zM90.5 845.3c-7.8 0-15.6-3-21.6-8.9-11.9-11.9-11.9-31.2 0-43.1L350.1 512 68.9 230.8c-11.9-11.9-11.9-31.2 0-43.1 11.9-11.9 31.2-11.9 43.1 0L436.4 512 112 836.3c-5.9 6-13.7 9-21.5 9zM618.1 845.3c-7.8 0-15.6-3-21.6-8.9-11.9-11.9-11.9-31.2 0-43.1L877.8 512 596.6 230.8c-11.9-11.9-11.9-31.2 0-43.1 11.9-11.9 31.2-11.9 43.1 0L964 512 639.7 836.3c-6 6-13.8 9-21.6 9z" /></svg>