<?xml version="1.0" standalone="no"?><!DOCTYPE svg PUBLIC "-//W3C//DTD SVG 1.1//EN" "http://www.w3.org/Graphics/SVG/1.1/DTD/svg11.dtd"><svg class="icon" width="200px" height="200.00px" viewBox="0 0 1024 1024" version="1.1" xmlns="http://www.w3.org/2000/svg"><path fill="#333333" d="M212.6 234.6H96c-22.1 0-40-17.9-40-40s17.9-40 40-40h116.6c22.1 0 40 17.9 40 40s-17.9 40-40 40zM514.4 759.3c-13.8 0-27.3-7.2-34.7-20L177.6 215c-11-19.1-4.5-43.6 14.7-54.6 19.1-11 43.6-4.5 54.6 14.7L549 699.4c11 19.1 4.5 43.6-14.7 54.6-6.3 3.6-13.1 5.3-19.9 5.3zM855.6 632.4H441.3c-14.3 0-27.5-7.7-34.7-20.1L247.7 335.8c-7.1-12.4-7.1-27.6 0.1-40 7.2-12.4 20.3-20 34.6-20H928c12.4 0 24.1 5.7 31.7 15.6s10.2 22.6 7 34.6l-72.4 276.5c-4.6 17.6-20.5 29.9-38.7 29.9z m-391.1-80h360.3l51.4-196.5H351.5l113 196.5zM823.6 760.3H515.1c-22.1 0-40-17.9-40-40s17.9-40 40-40h308.5c22.1 0 40 17.9 40 40s-17.9 40-40 40zM518.3 869.4c-52.1 0-94.6-42.4-94.6-94.6s42.4-94.6 94.6-94.6 94.6 42.4 94.6 94.6-42.5 94.6-94.6 94.6z m0-109.1c-8 0-14.6 6.5-14.6 14.6s6.5 14.6 14.6 14.6 14.6-6.5 14.6-14.6-6.6-14.6-14.6-14.6zM824.4 869.5c-52.1 0-94.6-42.4-94.6-94.6s42.4-94.6 94.6-94.6 94.6 42.4 94.6 94.6-42.5 94.6-94.6 94.6z m0-109.1c-8 0-14.6 6.5-14.6 14.6s6.5 14.6 14.6 14.6S839 783.1 839 775s-6.6-14.6-14.6-14.6z" /></svg>