<?xml version="1.0" standalone="no"?><!DOCTYPE svg PUBLIC "-//W3C//DTD SVG 1.1//EN" "http://www.w3.org/Graphics/SVG/1.1/DTD/svg11.dtd"><svg class="icon" width="200px" height="200.00px" viewBox="0 0 1024 1024" version="1.1" xmlns="http://www.w3.org/2000/svg"><path fill="#333333" d="M664.2 926.6c-12.1 0-24-5.4-31.9-15.8l-140-184.2H107.1c-22.1 0-40-17.9-40-40V177.4c0-22.1 17.9-40 40-40h809.7c22.1 0 40 17.9 40 40v509.1c0 22.1-17.9 40-40 40H704.1c-22.1 0-40-17.9-40-40s17.9-40 40-40h172.7V217.4H147.1v429.1h365c12.5 0 24.3 5.8 31.8 15.8l152 200c13.4 17.6 10 42.7-7.6 56.1-7.2 5.5-15.7 8.2-24.1 8.2z" /></svg>