<?xml version="1.0" standalone="no"?><!DOCTYPE svg PUBLIC "-//W3C//DTD SVG 1.1//EN" "http://www.w3.org/Graphics/SVG/1.1/DTD/svg11.dtd"><svg class="icon" width="200px" height="200.00px" viewBox="0 0 1024 1024" version="1.1" xmlns="http://www.w3.org/2000/svg"><path fill="#333333" d="M105.4 423.8c-22.1 0-40-17.9-40-40V65.4H384c22.1 0 40 17.9 40 40s-17.9 40-40 40H145.4v238.4c0 22.1-17.9 40-40 40zM384.1 958.6H65.4V640c0-22.1 17.9-40 40-40s40 17.9 40 40v238.6H384c22.1 0 40 17.9 40 40s-17.8 40-39.9 40zM958.6 958.6H640.1c-22.1 0-40-17.9-40-40s17.9-40 40-40h238.4V640c0-22.1 17.9-40 40-40s40 17.9 40 40v318.6zM918.6 423.8c-22.1 0-40-17.9-40-40V145.4H640.1c-22.1 0-40-17.9-40-40s17.9-40 40-40h318.4v318.4c0.1 22.1-17.8 40-39.9 40zM916.6 552H107.4c-22.1 0-40-17.9-40-40s17.9-40 40-40h809.3c22.1 0 40 17.9 40 40-0.1 22.1-18 40-40.1 40z" /></svg>