<?xml version="1.0" standalone="no"?><!DOCTYPE svg PUBLIC "-//W3C//DTD SVG 1.1//EN" "http://www.w3.org/Graphics/SVG/1.1/DTD/svg11.dtd"><svg class="icon" width="200px" height="200.00px" viewBox="0 0 1024 1024" version="1.1" xmlns="http://www.w3.org/2000/svg"><path fill="#333333" d="M896.2 544.6c-10.2 0-20.4-3.9-28.3-11.7L512 177.8 156.1 532.9c-15.6 15.6-41 15.6-56.6-0.1-15.6-15.6-15.6-41 0.1-56.6L483.8 93c15.6-15.6 40.9-15.6 56.5 0l384.2 383.2c15.6 15.6 15.7 40.9 0.1 56.6-7.9 7.9-18.2 11.8-28.4 11.8zM756.6 952.1H267.4c-22.1 0-40-17.9-40-40v-400c0-22.1 17.9-40 40-40s40 17.9 40 40v360h409.1v-360c0-22.1 17.9-40 40-40s40 17.9 40 40v400c0.1 22.1-17.8 40-39.9 40z" /></svg>