<?xml version="1.0" standalone="no"?><!DOCTYPE svg PUBLIC "-//W3C//DTD SVG 1.1//EN" "http://www.w3.org/Graphics/SVG/1.1/DTD/svg11.dtd"><svg class="icon" width="200px" height="200.00px" viewBox="0 0 1024 1024" version="1.1" xmlns="http://www.w3.org/2000/svg"><path fill="#333333" d="M698 126.3c11.4 0 23.6 0.6 36.7 1.9 79.3 7.7 171.1 80.4 182.2 219.6v46.3c-10.4 133.2-111 297.5-404.9 503.7-293.9-206.2-394.5-370.5-404.9-503.7v-46.3C118.3 208.6 210 135.9 289.4 128.2c13-1.3 25.2-1.9 36.7-1.9 91.7 0 135.6 39.6 186 99.6 50.2-60 94.2-99.6 185.9-99.6m0 88.6c-52.7 0-74.6 16.1-118.1 68L512 363.7l-67.9-80.8c-43.5-51.8-65.5-68-118.1-68-8.6 0-18.1 0.5-28.1 1.5-36.6 3.6-93.6 42.6-102.3 135.2v38.8c10.9 116.3 117.2 250 316.4 398.1 199.2-148.1 305.5-281.9 316.3-398.2v-38.8c-8.7-92.7-65.7-131.6-102.3-135.2-10-1-19.4-1.4-28-1.4z" /></svg>