<?xml version="1.0" standalone="no"?><!DOCTYPE svg PUBLIC "-//W3C//DTD SVG 1.1//EN" "http://www.w3.org/Graphics/SVG/1.1/DTD/svg11.dtd"><svg class="icon" width="200px" height="200.00px" viewBox="0 0 1024 1024" version="1.1" xmlns="http://www.w3.org/2000/svg"><path fill="#333333" d="M426.9 785c-48.5 0-95.6-9.5-140-28.3-42.8-18.1-81.3-44-114.3-77s-58.9-71.5-77-114.3C76.8 521 67.3 474 67.3 425.4s9.5-95.6 28.3-140c18.1-42.8 44-81.3 77-114.3s71.5-58.9 114.3-77c44.4-18.8 91.4-28.3 140-28.3s95.6 9.5 140 28.3c42.8 18.1 81.3 44 114.3 77s58.9 71.5 77 114.3c18.8 44.4 28.3 91.4 28.3 140s-9.5 95.6-28.3 140c-18.1 42.8-44 81.3-77 114.3s-71.5 58.9-114.3 77c-44.4 18.8-91.5 28.3-140 28.3z m0-639.1c-154.2 0-279.6 125.4-279.6 279.6S272.7 705 426.9 705c154.2 0 279.6-125.4 279.6-279.6S581 145.9 426.9 145.9zM922.7 962.7c-10.2 0-20.5-3.9-28.3-11.7L648.6 705.1c-15.6-15.6-15.6-40.9 0-56.6s40.9-15.6 56.6 0L951 894.4c15.6 15.6 15.6 40.9 0 56.6-7.8 7.8-18 11.7-28.3 11.7z" /></svg>