<?xml version="1.0" standalone="no"?><!DOCTYPE svg PUBLIC "-//W3C//DTD SVG 1.1//EN" "http://www.w3.org/Graphics/SVG/1.1/DTD/svg11.dtd"><svg class="icon" width="200px" height="200.00px" viewBox="0 0 1024 1024" version="1.1" xmlns="http://www.w3.org/2000/svg"><path fill="#333333" d="M875.9 786.3H148.1c-22.1 0-40-17.9-40-40s17.9-40 40-40h727.7c22.1 0 40 17.9 40 40s-17.9 40-39.9 40zM601 904.6H423c-22.1 0-40-17.9-40-40s17.9-40 40-40h178c22.1 0 40 17.9 40 40s-17.9 40-40 40zM760.1 784.3c-22.1 0-40-17.9-40-40V376.6c0-115.5-93.9-209.4-209.4-209.4s-209.4 93.9-209.4 209.4v367.7c0 22.1-17.9 40-40 40s-40-17.9-40-40V376.6c0-38.9 7.7-76.8 22.9-112.5 14.6-34.4 35.5-65.4 62.1-92 26.6-26.6 57.5-47.5 92-62.1 35.7-15.2 73.6-22.9 112.5-22.9s76.8 7.7 112.5 22.9c34.4 14.6 65.4 35.5 92 62.1 26.6 26.6 47.5 57.5 62.1 92 15.2 35.7 22.9 73.6 22.9 112.5v367.7c-0.2 22.1-18.1 40-40.2 40z" /></svg>